<svg width="22" height="22" viewBox="0 0 22 22" fill="none" xmlns="http://www.w3.org/2000/svg">
    <path d="M11.3575 14.7981C12.2773 14.7981 13.1594 14.4327 13.8097 13.7824C14.4601 13.132 14.8254 12.2499 14.8254 11.3302C14.8254 10.4105 14.4601 9.52838 13.8097 8.87803C13.1594 8.22767 12.2773 7.8623 11.3575 7.8623C10.4378 7.8623 9.55573 8.22767 8.90537 8.87803C8.25501 9.52838 7.88965 10.4105 7.88965 11.3302C7.88965 12.2499 8.25501 13.132 8.90537 13.7824C9.55573 14.4327 10.4378 14.7981 11.3575 14.7981Z" stroke="white" stroke-width="1.30046" stroke-linecap="round" stroke-linejoin="round"/>
    <path d="M3.55469 14.797V7.86123C3.55469 6.71155 4.01139 5.60896 4.82434 4.79602C5.63728 3.98307 6.73987 3.52637 7.88955 3.52637H14.8253C15.975 3.52637 17.0776 3.98307 17.8905 4.79602C18.7035 5.60896 19.1602 6.71155 19.1602 7.86123V14.797C19.1602 15.9467 18.7035 17.0493 17.8905 17.8622C17.0776 18.6752 15.975 19.1319 14.8253 19.1319H7.88955C6.73987 19.1319 5.63728 18.6752 4.82434 17.8622C4.01139 17.0493 3.55469 15.9467 3.55469 14.797Z" stroke="white" stroke-width="1.30046"/>
    <path d="M16.126 6.5697L16.1352 6.55957" stroke="white" stroke-width="1.30046" stroke-linecap="round" stroke-linejoin="round"/>
</svg>
